<?xml version="1.0" encoding="UTF-8" standalone="no"?>
<!DOCTYPE svg PUBLIC "-//W3C//DTD SVG 1.1//EN" "http://www.w3.org/Graphics/SVG/1.1/DTD/svg11.dtd">
<svg width="100%" height="100%" viewBox="0 0 642 717" version="1.1" xmlns="http://www.w3.org/2000/svg" xmlns:xlink="http://www.w3.org/1999/xlink" xml:space="preserve" xmlns:serif="http://www.serif.com/" style="fill-rule:evenodd;clip-rule:evenodd;stroke-linejoin:round;stroke-miterlimit:10;">
    <g transform="matrix(4.16667,0,0,4.16667,-200.788,-448.939)">
        <rect x="48.189" y="213.629" width="153.951" height="66.193" style="fill:rgb(237,234,227);"/>
    </g>
    <g transform="matrix(4.16667,0,0,4.16667,-200.788,-1114.18)">
        <rect x="48.189" y="279.822" width="153.951" height="93.466" style="fill:rgb(222,217,207);"/>
    </g>
    <g transform="matrix(4.16667,0,0,4.16667,-200.788,-585.617)">
        <rect x="48.189" y="257.67" width="153.951" height="10.914" style="fill:rgb(222,217,207);"/>
    </g>
    <g transform="matrix(4.16667,0,0,4.16667,-200.788,-402.117)">
        <rect x="48.189" y="235.65" width="153.951" height="10.914" style="fill:rgb(222,217,207);"/>
    </g>
    <g transform="matrix(4.16667,0,0,4.16667,-200.788,-218.608)">
        <rect x="48.189" y="213.629" width="153.951" height="10.914" style="fill:rgb(222,217,207);"/>
    </g>
    <g transform="matrix(4.16667,0,0,4.16667,-200.788,-843.608)">
        <path d="M52.678,294.086L197.651,294.086" style="fill:none;fill-rule:nonzero;stroke:rgb(165,153,141);stroke-width:1px;"/>
    </g>
    <g transform="matrix(4.16667,0,0,4.16667,-200.788,-1554.42)">
        <rect x="48.189" y="373.06" width="153.951" height="12.646" style="fill:rgb(165,153,141);"/>
    </g>
    <g transform="matrix(4.16667,0,0,4.16667,-200.788,-1199.52)">
        <path d="M52.678,336.796L197.651,336.796" style="fill:none;fill-rule:nonzero;stroke:rgb(165,153,141);stroke-width:1px;"/>
    </g>
    <g transform="matrix(4.16667,0,0,4.16667,-200.788,-873.208)">
        <text x="52.3px" y="309.832px" style="font-family:'ZillaSlab-Bold', 'Zilla Slab';font-weight:700;font-size:7px;">WHEN IT LOSES THE <tspan x="120.956px 125.765px 130.462px 134.648px " y="309.832px 309.832px 309.832px 309.832px ">ADVA</tspan>NT<tspan x="148.907px 153.527px " y="309.832px 309.832px ">AG</tspan>E, IT<tspan x="172px " y="309.832px ">.</tspan>..</text>
    </g>
    <g transform="matrix(4.16667,0,0,4.16667,-200.788,-873.208)">
        <text x="52.678px" y="322.97px" style="font-family:'ZillaSlab-Italic', 'Zilla Slab';font-style:italic;font-size:7px;">retreats quickl<tspan x="93.11px " y="322.97px ">y</tspan> to r<tspan x="107.502px " y="322.97px ">e</tspan>group and <tspan x="140.927px " y="322.97px ">r</tspan>eassess.</text>
    </g>
    <g transform="matrix(4.16667,0,0,4.16667,-200.788,-873.208)">
        <text x="52.678px" y="333.97px" style="font-family:'ZillaSlab-Italic', 'Zilla Slab';font-style:italic;font-size:7px;">strikes <tspan x="72.649px " y="333.97px ">r</tspan>ecklessly<tspan x="99.55px " y="333.97px ">,</tspan> hoping to create an opening<tspan x="181.254px " y="333.97px ">.</tspan></text>
    </g>
    <g transform="matrix(4.16667,0,0,4.16667,-200.788,-873.208)">
        <text x="52.678px" y="344.97px" style="font-family:'ZillaSlab-Italic', 'Zilla Slab';font-style:italic;font-size:7px;">dodges <tspan x="74.133px " y="344.97px ">w</tspan>ildly to avoid being hit.</text>
    </g>
    <g transform="matrix(4.16667,0,0,4.16667,-200.788,-873.208)">
        <text x="52.678px" y="355.97px" style="font-family:'ZillaSlab-Italic', 'Zilla Slab';font-style:italic;font-size:7px;">circles, searching f<tspan x="104.737px " y="355.97px ">o</tspan>r a <tspan x="116.882px " y="355.97px ">w</tspan>eak point to exploit.</text>
    </g>
    <g transform="matrix(4.16667,0,0,4.16667,-200.788,-873.208)">
        <text x="52.678px" y="366.97px" style="font-family:'ZillaSlab-Italic', 'Zilla Slab';font-style:italic;font-size:7px;">taunts, trying to bait enemies into a mistake.</text>
    </g>
    <g transform="matrix(4.16667,0,0,4.16667,-200.788,-873.208)">
        <text x="52.678px" y="377.97px" style="font-family:'ZillaSlab-Italic', 'Zilla Slab';font-style:italic;font-size:7px;">disengages, <tspan x="87.153px " y="377.97px ">v</tspan>anishing into the fray<tspan x="150.86px " y="377.97px ">.</tspan></text>
    </g>
    <g transform="matrix(4.16667,0,0,4.16667,-200.788,-873.208)">
        <text x="50.531px" y="232.772px" style="font-family:'ZillaSlab-Regular', 'Zilla Slab';font-size:7px;">Agile combatants <tspan x="104.571px " y="232.772px ">w</tspan>ho e<tspan x="122.183px 125.662px " y="232.772px 232.772px ">xc</tspan>el at hit-and<tspan x="165.247px 167.55px " y="232.772px 232.772px ">-r</tspan>un tactics,</text>
    </g>
    <g transform="matrix(4.16667,0,0,4.16667,-200.788,-873.208)">
        <text x="50.531px" y="241.772px" style="font-family:'ZillaSlab-Regular', 'Zilla Slab';font-size:7px;">harassing foes and striking from une<tspan x="161.376px " y="241.772px ">x</tspan>pected</text>
    </g>
    <g transform="matrix(4.16667,0,0,4.16667,-200.788,-873.208)">
        <text x="50.531px" y="250.772px" style="font-family:'ZillaSlab-Regular', 'Zilla Slab';font-size:7px;">angles. <tspan x="72.917px " y="250.772px ">T</tspan>he<tspan x="84.341px 87.75px " y="250.772px 250.772px ">y </tspan>falter<tspan x="105.53px 106.958px " y="250.772px 250.772px "> w</tspan>hen pinned do<tspan x="154.978px " y="250.772px ">w</tspan>n.</text>
    </g>
    <g transform="matrix(4.16667,0,0,4.16667,-200.788,-873.208)">
        <text x="52.3px" y="219.333px" style="font-family:'ZillaSlab-Bold', 'Zilla Slab';font-weight:700;font-size:10px;">SKIRMISHER</text>
    </g>
    <g transform="matrix(4.16667,0,0,4.16667,-200.788,-873.208)">
        <text x="58.556px" y="269.944px" style="font-family:'ZillaSlab-Italic', 'Zilla Slab';font-style:italic;font-size:7px;">great mobility</text>
    </g>
    <g transform="matrix(4.16667,0,0,4.16667,-200.788,-873.208)">
        <text x="49.167px" y="271.13px" style="font-family:'MS-UIGothic', 'MS UI Gothic', sans-serif;font-size:8px;">✱</text>
    </g>
    <g transform="matrix(4.16667,0,0,4.16667,-200.788,-873.208)">
        <g transform="matrix(7,0,0,7,80.5154,281.88)">
        </g>
        <g transform="matrix(7,0,0,7,82.512,281.88)">
        </g>
        <text x="58.556px" y="281.88px" style="font-family:'ZillaSlab-Italic', 'Zilla Slab';font-style:italic;font-size:7px;">quick <tspan x="75.083px " y="281.88px ">r</tspan>eﬂex<tspan x="90.364px " y="281.88px ">e</tspan>s</text>
    </g>
    <g transform="matrix(4.16667,0,0,4.16667,-200.788,-873.208)">
        <text x="120.868px" y="273.386px" style="font-family:'MS-UIGothic', 'MS UI Gothic', sans-serif;font-size:15px;">◉</text>
        <text x="130.631px" y="270.009px" style="font-family:'ZillaSlab-Bold', 'Zilla Slab';font-weight:700;font-size:7px;">STRIKE &amp; MO<tspan x="173.422px " y="270.009px ">V</tspan>E</text>
    </g>
    <g transform="matrix(4.16667,0,0,4.16667,-200.788,-873.208)">
        <text x="120.868px" y="285.322px" style="font-family:'MS-UIGothic', 'MS UI Gothic', sans-serif;font-size:15px;">◉</text>
        <text x="130.631px" y="281.945px" style="font-family:'ZillaSlab-Bold', 'Zilla Slab';font-weight:700;font-size:7px;">DODGIN<tspan x="157.791px " y="281.945px ">G</tspan> RO<tspan x="173.205px " y="281.945px ">L</tspan>L</text>
    </g>
    <g transform="matrix(4.16667,0,0,4.16667,-200.788,-873.208)">
        <text x="120.868px" y="297.013px" style="font-family:'MS-UIGothic', 'MS UI Gothic', sans-serif;font-size:15px;">◉</text>
        <text x="130.631px" y="293.635px" style="font-family:'ZillaSlab-Bold', 'Zilla Slab';font-weight:700;font-size:7px;">FOR<tspan x="143.931px " y="293.635px ">C</tspan>E B<tspan x="158.078px 162.698px " y="293.635px 293.635px ">AC</tspan>K</text>
    </g>
    <g transform="matrix(4.16667,0,0,4.16667,-200.788,-873.208)">
        <text x="49.167px" y="282.821px" style="font-family:'MS-UIGothic', 'MS UI Gothic', sans-serif;font-size:8px;">✱</text>
    </g>
    <g transform="matrix(4.16667,0,0,4.16667,-200.788,-873.208)">
        <text x="58.556px" y="293.57px" style="font-family:'ZillaSlab-Italic', 'Zilla Slab';font-style:italic;font-size:7px;">fragile</text>
    </g>
    <g transform="matrix(4.16667,0,0,4.16667,-200.788,-873.208)">
        <text x="49.167px" y="294.512px" style="font-family:'MS-UIGothic', 'MS UI Gothic', sans-serif;font-size:8px;">✱</text>
    </g>
</svg>
