<?xml version="1.0" encoding="UTF-8" standalone="no"?>
<!DOCTYPE svg PUBLIC "-//W3C//DTD SVG 1.1//EN" "http://www.w3.org/Graphics/SVG/1.1/DTD/svg11.dtd">
<svg width="100%" height="100%" viewBox="0 0 642 718" version="1.1" xmlns="http://www.w3.org/2000/svg" xmlns:xlink="http://www.w3.org/1999/xlink" xml:space="preserve" xmlns:serif="http://www.serif.com/" style="fill-rule:evenodd;clip-rule:evenodd;stroke-linejoin:round;stroke-miterlimit:10;">
    <g transform="matrix(4.16667,0,0,4.16667,-905.783,293.764)">
        <rect x="217.388" y="35.608" width="153.951" height="66.193" style="fill:rgb(237,234,227);"/>
    </g>
    <g transform="matrix(4.16667,0,0,4.16667,-905.783,-371.478)">
        <rect x="217.388" y="101.801" width="153.951" height="93.466" style="fill:rgb(222,217,207);"/>
    </g>
    <g transform="matrix(4.16667,0,0,4.16667,-905.783,157.082)">
        <rect x="217.388" y="79.65" width="153.951" height="10.914" style="fill:rgb(222,217,207);"/>
    </g>
    <g transform="matrix(4.16667,0,0,4.16667,-905.783,340.588)">
        <rect x="217.388" y="57.629" width="153.951" height="10.914" style="fill:rgb(222,217,207);"/>
    </g>
    <g transform="matrix(4.16667,0,0,4.16667,-905.783,524.094)">
        <rect x="217.388" y="35.608" width="153.951" height="10.914" style="fill:rgb(222,217,207);"/>
    </g>
    <g transform="matrix(4.16667,0,0,4.16667,-905.783,-100.904)">
        <path d="M221.877,116.065L366.85,116.065" style="fill:none;fill-rule:nonzero;stroke:rgb(165,153,141);stroke-width:1px;"/>
    </g>
    <g transform="matrix(4.16667,0,0,4.16667,-905.783,-813.612)">
        <rect x="217.388" y="195.267" width="153.951" height="12.646" style="fill:rgb(165,153,141);"/>
    </g>
    <g transform="matrix(4.16667,0,0,4.16667,-905.783,-1614.01)">
        <text x="221.499px" y="487.852px" style="font-family:'ZillaSlab-Bold', 'Zilla Slab';font-weight:700;font-size:7px;">WHEN ITS TRICKS F<tspan x="286.172px " y="487.852px ">A</tspan>IL, IT<tspan x="306.899px " y="487.852px ">.</tspan>..</text>
    </g>
    <g transform="matrix(4.16667,0,0,4.16667,-905.783,-1614.01)">
        <text x="221.877px" y="500.991px" style="font-family:'ZillaSlab-Italic', 'Zilla Slab';font-style:italic;font-size:7px;">feigns <tspan x="240.336px " y="500.991px ">w</tspan>eakness, to lure enemies closer<tspan x="331.154px " y="500.991px ">.</tspan></text>
    </g>
    <g transform="matrix(4.16667,0,0,4.16667,-905.783,-1614.01)">
        <text x="221.877px" y="511.991px" style="font-family:'ZillaSlab-Italic', 'Zilla Slab';font-style:italic;font-size:7px;">dodges frantically<tspan x="272.361px " y="511.991px ">,</tspan> hoping to r<tspan x="305.989px " y="511.991px ">e</tspan>gain control.</text>
    </g>
    <g transform="matrix(4.16667,0,0,4.16667,-905.783,-1614.01)">
        <text x="221.877px" y="522.991px" style="font-family:'ZillaSlab-Italic', 'Zilla Slab';font-style:italic;font-size:7px;">mocks enemies to draw attention away<tspan x="332.19px " y="522.991px ">.</tspan></text>
    </g>
    <g transform="matrix(4.16667,0,0,4.16667,-905.783,-1614.01)">
        <text x="221.877px" y="533.991px" style="font-family:'ZillaSlab-Italic', 'Zilla Slab';font-style:italic;font-size:7px;">escapes, leaving a deco<tspan x="287.208px " y="533.991px ">y</tspan> in its place.</text>
    </g>
    <g transform="matrix(4.16667,0,0,4.16667,-905.783,-1614.01)">
        <text x="221.877px" y="544.991px" style="font-family:'ZillaSlab-Italic', 'Zilla Slab';font-style:italic;font-size:7px;">reverses their<tspan x="259.544px " y="544.991px "> </tspan>position, to surprise opponents.</text>
    </g>
    <g transform="matrix(4.16667,0,0,4.16667,-905.783,-1614.01)">
        <text x="221.877px" y="555.991px" style="font-family:'ZillaSlab-Italic', 'Zilla Slab';font-style:italic;font-size:7px;">lashes out in desperation, to co<tspan x="308.88px " y="555.991px ">v</tspan>er f<tspan x="321.158px " y="555.991px ">a</tspan>ilure.</text>
    </g>
    <g transform="matrix(4.16667,0,0,4.16667,-905.783,-1614.01)">
        <text x="219.73px" y="410.565px" style="font-family:'ZillaSlab-Regular', 'Zilla Slab';font-size:7px;">Cunning deceiv<tspan x="266.567px " y="410.565px ">e</tspan>rs <tspan x="277.291px " y="410.565px ">w</tspan>ho thri<tspan x="303.009px 306.453px " y="410.565px 410.565px ">ve</tspan> on confusion,</text>
    </g>
    <g transform="matrix(4.16667,0,0,4.16667,-905.783,-1614.01)">
        <text x="219.73px" y="419.565px" style="font-family:'ZillaSlab-Regular', 'Zilla Slab';font-size:7px;">turning the tide of battle <tspan x="295.582px " y="419.565px ">w</tspan>ith guile. <tspan x="328.755px " y="419.565px ">T</tspan>he<tspan x="340.179px 343.588px " y="419.565px 419.565px ">y </tspan>crumble</text>
    </g>
    <g transform="matrix(4.16667,0,0,4.16667,-905.783,-1614.01)">
        <text x="219.73px" y="428.565px" style="font-family:'ZillaSlab-Regular', 'Zilla Slab';font-size:7px;">when their<tspan x="252.427px " y="428.565px "> </tspan>tricks are exposed or<tspan x="316.708px " y="428.565px "> </tspan>fail.</text>
    </g>
    <g transform="matrix(4.16667,0,0,4.16667,-905.783,-1614.01)">
        <text x="221.499px" y="397.126px" style="font-family:'ZillaSlab-Bold', 'Zilla Slab';font-weight:700;font-size:10px;">TRI<tspan x="237.799px " y="397.126px ">C</tspan>KSTER</text>
    </g>
    <g transform="matrix(4.16667,0,0,4.16667,-905.783,-1614.01)">
        <text x="227.755px" y="447.737px" style="font-family:'ZillaSlab-Italic', 'Zilla Slab';font-style:italic;font-size:7px;">master of deception</text>
    </g>
    <g transform="matrix(4.16667,0,0,4.16667,-905.783,-1614.01)">
        <text x="218.365px" y="448.923px" style="font-family:'MS-UIGothic', 'MS UI Gothic', sans-serif;font-size:8px;">✱</text>
    </g>
    <g transform="matrix(4.16667,0,0,4.16667,-905.783,-1614.01)">
        <text x="227.755px" y="459.672px" style="font-family:'ZillaSlab-Italic', 'Zilla Slab';font-style:italic;font-size:7px;">unpredictable</text>
    </g>
    <g transform="matrix(4.16667,0,0,4.16667,-905.783,-1614.01)">
        <text x="290.067px" y="451.179px" style="font-family:'MS-UIGothic', 'MS UI Gothic', sans-serif;font-size:15px;">◉</text>
        <text x="299.829px" y="447.801px" style="font-family:'ZillaSlab-Bold', 'Zilla Slab';font-weight:700;font-size:7px;">DECEPTIVE STRIKE</text>
    </g>
    <g transform="matrix(4.16667,0,0,4.16667,-905.783,-1614.01)">
        <text x="290.067px" y="463.115px" style="font-family:'MS-UIGothic', 'MS UI Gothic', sans-serif;font-size:15px;">◉</text>
        <text x="299.829px" y="459.737px" style="font-family:'ZillaSlab-Bold', 'Zilla Slab';font-weight:700;font-size:7px;">B<tspan x="304.008px " y="459.737px ">A</tspan>IT <tspan x="316.951px " y="459.737px ">A</tspan>ND S<tspan x="337.062px " y="459.737px ">W</tspan>ITCH</text>
    </g>
    <g transform="matrix(4.16667,0,0,4.16667,-905.783,-1614.01)">
        <text x="290.067px" y="474.806px" style="font-family:'MS-UIGothic', 'MS UI Gothic', sans-serif;font-size:15px;">◉</text>
        <text x="299.829px" y="471.428px" style="font-family:'ZillaSlab-Bold', 'Zilla Slab';font-weight:700;font-size:7px;">SN<tspan x="308.845px 313.213px " y="471.428px 471.428px ">AT</tspan>CH <tspan x="328.676px " y="471.428px ">W</tspan>EAPON</text>
    </g>
    <g transform="matrix(4.16667,0,0,4.16667,-905.783,-1614.01)">
        <text x="218.365px" y="460.614px" style="font-family:'MS-UIGothic', 'MS UI Gothic', sans-serif;font-size:8px;">✱</text>
    </g>
    <g transform="matrix(4.16667,0,0,4.16667,-905.783,-1614.01)">
        <text x="227.755px" y="471.363px" style="font-family:'ZillaSlab-Italic', 'Zilla Slab';font-style:italic;font-size:7px;">fragile</text>
    </g>
    <g transform="matrix(4.16667,0,0,4.16667,-905.783,-1614.01)">
        <text x="218.365px" y="472.304px" style="font-family:'MS-UIGothic', 'MS UI Gothic', sans-serif;font-size:8px;">✱</text>
    </g>
    <g transform="matrix(4.16667,0,0,4.16667,-905.783,-458.721)">
        <path d="M221.877,159.003L366.85,159.003" style="fill:none;fill-rule:nonzero;stroke:rgb(165,153,141);stroke-width:1px;"/>
    </g>
</svg>
